<?xml version="1.0" encoding="utf-8"?>
<!-- Generator: Adobe Illustrator 21.0.0, SVG Export Plug-In . SVG Version: 6.00 Build 0)  -->
<svg version="1.1" id="Layer_1" xmlns="http://www.w3.org/2000/svg" xmlns:xlink="http://www.w3.org/1999/xlink" x="0px" y="0px"
	 viewBox="0 0 20 31" style="enable-background:new 0 0 20 31;" xml:space="preserve">
<style type="text/css">
	.st0{fill:#FAFAFA;}
</style>
<g transform="translate(0,-952.36218)">
	<path class="st0" d="M11,982.5l8.2-7.3c0.6-0.5,0.7-1.5,0.1-2.1c-0.5-0.6-1.5-0.6-2.1-0.1l-5.8,5.1v-23.9c0-0.8-0.6-1.5-1.5-1.5
		s-1.5,0.7-1.5,1.5v23.9l-5.8-5.1c-0.6-0.5-1.5-0.4-2.1,0.1c-0.5,0.6-0.5,1.5,0.1,2.1l8.2,7.3c0.2,0.2,0.6,0.4,1,0.4
		C10.4,982.9,10.7,982.8,11,982.5z"/>
</g>
</svg>
